<?xml version="1.0" encoding="utf-8"?>
<!-- Generator: Adobe Illustrator 19.0.0, SVG Export Plug-In . SVG Version: 6.00 Build 0)  -->
<svg version="1.1" id="Layer_1" xmlns="http://www.w3.org/2000/svg" xmlns:xlink="http://www.w3.org/1999/xlink" x="0px" y="0px"
	 viewBox="0 0 50 50" style="enable-background:new 0 0 50 50;" xml:space="preserve">
<style type="text/css">
	.st0{fill:#3E5BA7;}
</style>
<path id="XMLID_7_" class="st0" d="M42.4,49.2c1-1.3,2.5-2.5,2.8-4.2c0.2-1.2,0.1-2.3,0.2-3.5c0.1-1.4,0.7-2.7,0.8-4
	c0.1-0.7,0.1-1.4-0.1-2c-0.2-0.7-0.8-1.1-1-1.9C45,33.1,45,32.4,45,31.9c0-0.4-0.2-2.7,0.4-2.7c0,0,1.4,1.9,2.2,2.5l0.5-0.3
	c0,0-2.5-3.6-2.5-4.5c0-0.8-32.8,0-33,0c0.6,0,1.7,6.7,1.7,7.3c0.2,1.5,0.4,3,0.3,4.5c-0.1,1.1-0.8,2-1.1,3
	c-0.3,0.9-0.2,1.8-0.2,2.7c0,0.5-0.9,1.5-1.2,2c-0.3,0.6-0.8,1.8-0.5,2.5c0.7,1.4,3.9,0.8,5.1,0.6c0.1,0,0.2-2.7,0.3-2.9l1.9,1.5
	l3-3.3c0,0-6.9-5.5-0.8-12.7c0,0,5.5,0.2,9.1-1.3c0.8,1.4,2.1,2.6,2.5,4.2c0.3,1.2,0.1,2.7-0.1,3.9c-1,1.4-1.9,2.8-2.9,4.3
	c-0.8,1.1-3.8,4.4-0.8,4.9c1.7,0.3,2.5,0.1,3.3-1.4c0.6-1.1,1.1-2.2,2-3.1c0.8-0.8,1.3-1.3,1.2-2.6c-0.3-2.1,1.2-2.9,2.7-4.1
	c0,0,1.8-2.7,0.4-4.1c0,0-0.2-1.1,0.4-0.8c1.1,2,2.1,3.4,2,5.7c0,1.3,0.2,2.7-0.1,4c-0.1,0.8-0.5,1.5-0.6,2.3
	c-0.1,1-0.6,1.8-1.2,2.6c-0.3,0.4-1.1,0.9-1.2,1.4c-0.1,0.7,0.5,1.1,1,1.6"/>
<path id="XMLID_6_" class="st0" d="M49.2,30.6c1.2,0.9,0.7,5.6,0.2,6.2c-0.5,0.7-0.9-2.7-2.2-3.7c-1.2-0.9-1.4-2-0.9-2.7
	C46.9,29.8,48,29.7,49.2,30.6z"/>
<path id="XMLID_9_" class="st0" d="M40.4,12.4c-1.6-1-6,0.3-6,0.3c-9.5,5.7-15.2,1.1-15.2,1.1c-4-3.7-6.9-5.1-8.7-5.5
	c-0.4-0.2-0.8-0.3-1.3-0.4C9.4,4.7,9.4,1,8.7,1C7.9,1,6.5,4.9,5.9,8.1c0,0-0.1,0-0.1,0c-1-0.9-3-5-3-6.2c0,0,0,0,0-0.1c0,0,0,0,0,0
	c-1.3,0.2-2,2.7-1.6,5.5c0.2,1.5,0.7,2.7,1.4,3.6c-0.5,0.9-0.8,2-0.8,3.2c0,0.3,0,0.6,0.1,0.9c0,0-0.1,0.1-0.1,0.1
	c0,0.1,0,0.3,0,0.4c0,2.6-3.5,5.6-0.3,7.7H5c0.9-0.7,1.9-1.4,2.7-2.2c3.3,0.1,4.8,4.3,4.8,4.3h18.8h0.9H46c0.4-1.6,0.7-2.6,0.7-4
	C46.7,17.1,44,13.3,40.4,12.4z M18.7,23.2l-1.8-1l-1.8,1l0.4-2.1l-1.5-1.5l2.1-0.3l0.9-1.9l0.9,1.9l2.1,0.3l-1.5,1.5L18.7,23.2z
	 M26.7,23.2l-1.8-1l-1.8,1l0.4-2.1l-1.5-1.5l2.1-0.3l0.9-1.9l0.9,1.9l2.1,0.3l-1.5,1.5L26.7,23.2z M34.6,23.2l-1.8-1l-1.8,1l0.4-2.1
	l-1.5-1.5l2.1-0.3l0.9-1.9l0.9,1.9l2.1,0.3l-1.5,1.5L34.6,23.2z M42.9,23.2l-1.8-1l-1.8,1l0.4-2.1l-1.5-1.5l2.1-0.3l0.9-1.9l0.9,1.9
	l2.1,0.3l-1.5,1.5L42.9,23.2z"/>
</svg>
