<?xml version="1.0" encoding="utf-8"?>
<!-- Generator: Adobe Illustrator 19.0.0, SVG Export Plug-In . SVG Version: 6.00 Build 0)  -->
<svg version="1.1" id="Layer_1" xmlns="http://www.w3.org/2000/svg" xmlns:xlink="http://www.w3.org/1999/xlink" x="0px" y="0px"
	 viewBox="0 0 50 50" style="enable-background:new 0 0 50 50;" xml:space="preserve">
<style type="text/css">
	.st0{fill:#3E5BA7;}
	.st1{fill:#3FA73E;}
</style>
<path id="XMLID_7_" class="st0" d="M120.4,48.2c1-1.3,2.5-2.5,2.8-4.2c0.2-1.2,0.1-2.3,0.2-3.5c0.1-1.4,0.7-2.7,0.8-4
	c0.1-0.7,0.1-1.4-0.1-2c-0.2-0.7-0.8-1.1-1-1.9c-0.1-0.5-0.1-1.2-0.1-1.7c0-0.4-0.2-2.7,0.4-2.7c0,0,1.4,1.9,2.2,2.5l0.5-0.3
	c0,0-2.5-3.6-2.5-4.5c0-0.8-32.8,0-33,0c0.6,0,1.7,6.7,1.7,7.3c0.2,1.5,0.4,3,0.3,4.5c-0.1,1.1-0.8,2-1.1,3
	c-0.3,0.9-0.2,1.8-0.2,2.7c0,0.5-0.9,1.5-1.2,2c-0.3,0.6-0.8,1.8-0.5,2.5c0.7,1.4,3.9,0.8,5.1,0.6c0.1,0,0.2-2.7,0.3-2.9l1.9,1.5
	l3-3.3c0,0-6.9-5.5-0.8-12.7c0,0,5.5,0.2,9.1-1.3c0.8,1.4,2.1,2.6,2.5,4.2c0.3,1.2,0.1,2.7-0.1,3.9c-1,1.4-1.9,2.8-2.9,4.3
	c-0.8,1.1-3.8,4.4-0.8,4.9c1.7,0.3,2.5,0.1,3.3-1.4c0.6-1.1,1.1-2.2,2-3.1c0.8-0.8,1.3-1.3,1.2-2.6c-0.3-2.1,1.2-2.9,2.7-4.1
	c0,0,1.8-2.7,0.4-4.1c0,0-0.2-1.1,0.4-0.8c1.1,2,2.1,3.4,2,5.7c0,1.3,0.2,2.7-0.1,4c-0.1,0.8-0.5,1.5-0.6,2.3
	c-0.1,1-0.6,1.8-1.2,2.6c-0.3,0.4-1.1,0.9-1.2,1.4c-0.1,0.7,0.5,1.1,1,1.6"/>
<path id="XMLID_6_" class="st0" d="M127.2,29.6c1.2,0.9,0.7,5.6,0.2,6.2c-0.5,0.7-0.9-2.7-2.2-3.7c-1.2-0.9-1.4-2-0.9-2.7
	C124.9,28.8,126,28.6,127.2,29.6z"/>
<path id="XMLID_9_" class="st0" d="M118.4,11.4c-1.6-1-6,0.3-6,0.3c-9.5,5.7-15.2,1.1-15.2,1.1c-4-3.7-6.9-5.1-8.7-5.5
	c-0.4-0.2-0.8-0.3-1.3-0.4C87.4,3.6,87.4,0,86.7,0c-0.8,0-2.1,3.9-2.8,7.1c0,0-0.1,0-0.1,0c-1-0.9-3-5-3-6.2c0,0,0,0,0-0.1
	c0,0,0,0,0,0c-1.3,0.2-2,2.7-1.6,5.5c0.2,1.5,0.7,2.7,1.4,3.6c-0.5,0.9-0.8,2-0.8,3.2c0,0.3,0,0.6,0.1,0.9c0,0-0.1,0.1-0.1,0.1
	c0,0.1,0,0.3,0,0.4c0,2.6-3.5,5.6-0.3,7.7H83c0.9-0.7,1.9-1.4,2.7-2.2c3.3,0.1,4.8,4.3,4.8,4.3h18.8h0.9H124c0.4-1.6,0.7-2.6,0.7-4
	C124.7,16,122,12.3,118.4,11.4z M96.7,22.1l-1.8-1l-1.8,1l0.4-2.1l-1.5-1.5l2.1-0.3l0.9-1.9l0.9,1.9l2.1,0.3l-1.5,1.5L96.7,22.1z
	 M104.7,22.1l-1.8-1l-1.8,1l0.4-2.1l-1.5-1.5l2.1-0.3l0.9-1.9l0.9,1.9l2.1,0.3l-1.5,1.5L104.7,22.1z M112.6,22.1l-1.8-1l-1.8,1
	l0.4-2.1l-1.5-1.5l2.1-0.3l0.9-1.9l0.9,1.9l2.1,0.3l-1.5,1.5L112.6,22.1z M120.9,22.1l-1.8-1l-1.8,1l0.4-2.1l-1.5-1.5l2.1-0.3
	l0.9-1.9l0.9,1.9l2.1,0.3l-1.5,1.5L120.9,22.1z"/>
<g id="XMLID_14_">
	<path id="XMLID_12_" class="st1" d="M30.3,26.6c2-3.2,6-6.6,13.2-8.5c-2.7,0.8-9.2,4.2-12.1,9.8c12,4.2,13-10,17.7-11.8
		C30.8,13.4,29.3,20.6,30.3,26.6z"/>
	<path id="XMLID_11_" class="st1" d="M27.7,29.8c-2.9-5.6-9.4-9-12.1-9.8c7.2,1.9,11.2,5.3,13.2,8.5c1-6-0.6-13.3-18.7-10.4
		C14.7,19.8,15.6,34,27.7,29.8z"/>
	<path id="XMLID_10_" class="st1" d="M28.3,20.4c0.1-3.7,0.7-8.8,0.7-8.8s0.6,5.1,0.7,8.8c2-0.8,3.5-5,3.5-10.1C33.1,4.6,29,0,29,0
		s-4.1,4.6-4.1,10.3C24.8,15.4,26.3,19.6,28.3,20.4z"/>
	<path id="XMLID_8_" class="st1" d="M30.6,28.3c0,0,0,0.3-0.1,0.8c-0.1,0.5-0.2,1.3-0.5,2.2c-0.5,1.8-1.4,4.4-3.1,6.7
		c-1.7,2.3-4.2,4.4-6.9,5.6c-1.4,0.6-2.8,1-4.2,1.3c-1.4,0.2-2.7,0.3-4,0.2C9.4,45,7.6,44.4,6.3,44c-1.3-0.4-2.1-0.7-2.7-0.8
		c-1.2-0.3-1.4,0.3-1.8,0.9c-0.4,0.5-1,0.9-0.1,2c0.4,0.5,1.3,1.3,2.8,2.1c1.5,0.8,3.8,1.6,7.1,1.8c1.6,0.1,3.4-0.1,5.2-0.5
		c1.8-0.5,3.5-1.2,5.1-2.2c3.2-2,5.7-5,7.1-8c1.4-3,1.7-5.8,1.7-7.8c0-1,0-1.8-0.1-2.3C30.6,28.6,30.6,28.3,30.6,28.3z"/>
</g>
</svg>
