<?xml version="1.0" encoding="utf-8"?>
<!-- Generator: Adobe Illustrator 19.0.0, SVG Export Plug-In . SVG Version: 6.00 Build 0)  -->
<svg version="1.1" id="Layer_1" xmlns="http://www.w3.org/2000/svg" xmlns:xlink="http://www.w3.org/1999/xlink" x="0px" y="0px"
	 viewBox="0 0 50 50" style="enable-background:new 0 0 50 50;" xml:space="preserve">
<style type="text/css">
	.st0{fill:#3E5BA7;}
	.st1{fill:#3FA73E;}
	.st2{fill:#A73E3E;}
	.st3{fill:#A39040;}
</style>
<path id="XMLID_7_" class="st0" d="M120.4,48.2c1-1.3,2.5-2.5,2.8-4.2c0.2-1.2,0.1-2.3,0.2-3.5c0.1-1.4,0.7-2.7,0.8-4
	c0.1-0.7,0.1-1.4-0.1-2c-0.2-0.7-0.8-1.1-1-1.9c-0.1-0.5-0.1-1.2-0.1-1.7c0-0.4-0.2-2.7,0.4-2.7c0,0,1.4,1.9,2.2,2.5l0.5-0.3
	c0,0-2.5-3.6-2.5-4.5c0-0.8-32.8,0-33,0c0.6,0,1.7,6.7,1.7,7.3c0.2,1.5,0.4,3,0.3,4.5c-0.1,1.1-0.8,2-1.1,3
	c-0.3,0.9-0.2,1.8-0.2,2.7c0,0.5-0.9,1.5-1.2,2c-0.3,0.6-0.8,1.8-0.5,2.5c0.7,1.4,3.9,0.8,5.1,0.6c0.1,0,0.2-2.7,0.3-2.9l1.9,1.5
	l3-3.3c0,0-6.9-5.5-0.8-12.7c0,0,5.5,0.2,9.1-1.3c0.8,1.4,2.1,2.6,2.5,4.2c0.3,1.2,0.1,2.7-0.1,3.9c-1,1.4-1.9,2.8-2.9,4.3
	c-0.8,1.1-3.8,4.4-0.8,4.9c1.7,0.3,2.5,0.1,3.3-1.4c0.6-1.1,1.1-2.2,2-3.1c0.8-0.8,1.3-1.3,1.2-2.6c-0.3-2.1,1.2-2.9,2.7-4.1
	c0,0,1.8-2.7,0.4-4.1c0,0-0.2-1.1,0.4-0.8c1.1,2,2.1,3.4,2,5.7c0,1.3,0.2,2.7-0.1,4c-0.1,0.8-0.5,1.5-0.6,2.3
	c-0.1,1-0.6,1.8-1.2,2.6c-0.3,0.4-1.1,0.9-1.2,1.4c-0.1,0.7,0.5,1.1,1,1.6"/>
<path id="XMLID_6_" class="st0" d="M127.2,29.6c1.2,0.9,0.7,5.6,0.2,6.2c-0.5,0.7-0.9-2.7-2.2-3.7c-1.2-0.9-1.4-2-0.9-2.7
	C124.9,28.8,126,28.6,127.2,29.6z"/>
<path id="XMLID_9_" class="st0" d="M118.4,11.4c-1.6-1-6,0.3-6,0.3c-9.5,5.7-15.2,1.1-15.2,1.1c-4-3.7-6.9-5.1-8.7-5.5
	c-0.4-0.2-0.8-0.3-1.3-0.4C87.4,3.6,87.4,0,86.7,0c-0.8,0-2.1,3.9-2.8,7.1c0,0-0.1,0-0.1,0c-1-0.9-3-5-3-6.2c0,0,0,0,0-0.1
	c0,0,0,0,0,0c-1.3,0.2-2,2.7-1.6,5.5c0.2,1.5,0.7,2.7,1.4,3.6c-0.5,0.9-0.8,2-0.8,3.2c0,0.3,0,0.6,0.1,0.9c0,0-0.1,0.1-0.1,0.1
	c0,0.1,0,0.3,0,0.4c0,2.6-3.5,5.6-0.3,7.7H83c0.9-0.7,1.9-1.4,2.7-2.2c3.3,0.1,4.8,4.3,4.8,4.3h18.8h0.9H124c0.4-1.6,0.7-2.6,0.7-4
	C124.7,16,122,12.3,118.4,11.4z M96.7,22.1l-1.8-1l-1.8,1l0.4-2.1l-1.5-1.5l2.1-0.3l0.9-1.9l0.9,1.9l2.1,0.3l-1.5,1.5L96.7,22.1z
	 M104.7,22.1l-1.8-1l-1.8,1l0.4-2.1l-1.5-1.5l2.1-0.3l0.9-1.9l0.9,1.9l2.1,0.3l-1.5,1.5L104.7,22.1z M112.6,22.1l-1.8-1l-1.8,1
	l0.4-2.1l-1.5-1.5l2.1-0.3l0.9-1.9l0.9,1.9l2.1,0.3l-1.5,1.5L112.6,22.1z M120.9,22.1l-1.8-1l-1.8,1l0.4-2.1l-1.5-1.5l2.1-0.3
	l0.9-1.9l0.9,1.9l2.1,0.3l-1.5,1.5L120.9,22.1z"/>
<g id="XMLID_14_">
	<path id="XMLID_12_" class="st1" d="M-43.7,13.1c2-3.2,6-6.6,13.2-8.5c-2.7,0.8-9.2,4.2-12.1,9.8c12,4.2,13-10,17.7-11.8
		C-43.2-0.2-44.7,7.1-43.7,13.1z"/>
	<path id="XMLID_11_" class="st1" d="M-46.3,16.3c-2.9-5.6-9.4-9-12.1-9.8c7.2,1.9,11.2,5.3,13.2,8.5c1-6-0.6-13.3-18.7-10.4
		C-59.3,6.3-58.4,20.5-46.3,16.3z"/>
	<path id="XMLID_10_" class="st1" d="M-45.7,6.9c0.1-3.7,0.7-8.8,0.7-8.8s0.6,5.1,0.7,8.8c2-0.8,3.5-5,3.5-10.1
		c0-5.7-4.1-10.3-4.1-10.3s-4.1,4.6-4.1,10.3C-49.2,1.8-47.7,6.1-45.7,6.9z"/>
	<path id="XMLID_8_" class="st1" d="M-43.4,14.8c0,0,0,0.3-0.1,0.8c-0.1,0.5-0.2,1.3-0.5,2.2c-0.5,1.8-1.4,4.4-3.1,6.7
		c-1.7,2.3-4.2,4.4-6.9,5.6c-1.4,0.6-2.8,1-4.2,1.3c-1.4,0.2-2.7,0.3-4,0.2c-2.5-0.1-4.3-0.7-5.6-1.1c-1.3-0.4-2.1-0.7-2.7-0.8
		c-1.2-0.3-1.4,0.3-1.8,0.9c-0.4,0.5-1,0.9-0.1,2c0.4,0.5,1.3,1.3,2.8,2.1c1.5,0.8,3.8,1.6,7.1,1.8c1.6,0.1,3.4-0.1,5.2-0.5
		c1.8-0.5,3.5-1.2,5.1-2.2c3.2-2,5.7-5,7.1-8c1.4-3,1.7-5.8,1.7-7.8c0-1,0-1.8-0.1-2.3C-43.4,15.1-43.4,14.8-43.4,14.8z"/>
</g>
<path id="XMLID_18_" class="st2" d="M-20.1,72.4h-4.2v3c0,0.8-0.6,1.4-1.4,1.4c-0.8,0-1.4-0.6-1.4-1.4V58.2h-43V81h10.6v-8.4H-46V81
	H-36V68.7c0-0.8,0.6-1.4,1.4-1.4c0.8,0,1.4,0.6,1.4,1.4l0,5.8c0,3.7,3,6.6,6.6,6.6c3.7,0,6.6-3,6.6-6.6L-20.1,72.4z"/>
<path id="XMLID_20_" class="st2" d="M-47.9,37.9h-1.3C-72,37.9-70,52.6-70,56.6h43C-27,52.6-25,37.9-47.9,37.9z M-59.5,50.6l-1,3.1
	l-1-3.1h-3.2l2.6-1.9l-1-3.1l2.6,1.9l2.6-1.9l-1,3.1l2.6,1.9H-59.5z M-47.6,50.6l-1,3.1l-1-3.1h-3.2l2.6-1.9l-1-3.1l2.6,1.9l2.6-1.9
	l-1,3.1l2.6,1.9H-47.6z M-35.7,50.6l-1,3.1l-1-3.1h-3.2l2.6-1.9l-1-3.1l2.6,1.9l2.6-1.9l-1,3.1l2.6,1.9H-35.7z"/>
<path id="XMLID_27_" class="st3" d="M37.2,2.3c-4,1.4-8.9,2-7.6,9c-2,0.1-4-1-2.9-8.5c-4.4,0.8-6.4,3.5-5.6,8.5
	c-4.4-0.8-5.2-3.1-4.8-6.1c-2,2.4-5.5,3.5-2,9.6c-1.4,0.1-2.9,1.2-6.9-5.5c0.8,3.5-3,2,4,11.4c-2.8,0.7-5-1.8-7.5-2.8
	c1,1.6-1.7,1.7,3.4,5.1l39.1,0.3c-0.7-2.3-2.8-4.1,3.6-9.1c-2.6-1.8-4.7-1.2-6.5,0.8c-2.1-1.9-0.8-4.6,2.6-7.9
	c-4.7,0.7-8.4,1.8-9.9,5.6C34.6,11.1,34.1,10.5,37.2,2.3L37.2,2.3z M27.8,14.8l1.3,2.5l2.7,0.4l-1.8,1.9l0.2,2.7l-2.3-1.2l-2.4,1.2
	l0.4-2.7l-1.8-2l2.5-0.3L27.8,14.8L27.8,14.8z M37.9,14.8l1.3,2.5l2.7,0.4L40,19.6l0.2,2.8l-2.2-1.2l-2.4,1.2l0.4-2.7l-1.8-2
	l2.5-0.3L37.9,14.8L37.9,14.8z M17.7,14.8l1.3,2.5l2.7,0.4l-1.8,1.9l0.2,2.7l-2.2-1.2l-2.4,1.2l0.4-2.7l-1.8-2l2.5-0.3L17.7,14.8
	L17.7,14.8z"/>
<path id="XMLID_19_" class="st3" d="M7,23.9L46.6,24c6.4,13.2-1.5,16.7-7.5,12.4c0.2,2.1,3,6.8,4.8,10.2l-6.1-0.2
	c-1.1-1-1.2-2.5-1.8-3.9c-0.6-1.3-1.8-2.5-5-2.7c-3.8-0.1-4.2,1.9-4.1,3.1c0.1,1.6,1.5,2.7,2,3.6l-6.5-0.1c-3.6-7.1-3.7-4.6-5.1-4.8
	c-5.7,2-9.8-0.6-12.8-6.5c3.8,1.6,5.4-0.1,6.5-2.3c-7.9,2-9.4-4.5-10.9-8.2C2.6,25.3,2.7,26.9,7,23.9L7,23.9L7,23.9z"/>
</svg>
